PathFileType	4	(X/Y/Z)	Patient4_TMGait_0pt2_01_right_11.trc.trc
DataRate	CameraRate	NumFrames	NumMarkers	Units	OrigDataRate	OrigDataStartFrame	OrigNumFrames
43.076923076923	43.076923076923	5	33	mm	43.076923076923	89	       141
Frame#	Time	Sacral			L.Shoulder			Chest			R.Shoulder			Neck			R.ASIS			L.ASIS			R.Thigh.Superior			R.Thigh.Lateral			R.Thigh.Inferior			R.Patella			L.Thigh.Superior			L.Thigh.Lateral			L.Thigh.Inferior			L.Patella			L.Shank.Superior			L.Shank.Lateral			L.Shank.Inferior			R.Shank.Superior			R.Shank.Lateral			R.Shank.Inferior			R.Heel			R.Midfoot.Superior			R.Midfoot.Lateral			R.Toe			L.Heel			L.Midfoot.Lateral			L.Midfoot.Superior			L.Toe			L.Elbow			L.Wrist			R.Elbow			R.Wrist			
		X1	Y1	Z1	X2	Y2	Z2	X3	Y3	Z3	X4	Y4	Z4	X5	Y5	Z5	X6	Y6	Z6	X7	Y7	Z7	X8	Y8	Z8	X9	Y9	Z9	X10	Y10	Z10	X11	Y11	Z11	X12	Y12	Z12	X13	Y13	Z13	X14	Y14	Z14	X15	Y15	Z15	X16	Y16	Z16	X17	Y17	Z17	X18	Y18	Z18	X19	Y19	Z19	X20	Y20	Z20	X21	Y21	Z21	X22	Y22	Z22	X23	Y23	Z23	X24	Y24	Z24	X25	Y25	Z25	X26	Y26	Z26	X27	Y27	Z27	X28	Y28	Z28	X29	Y29	Z29	X30	Y30	Z30	X31	Y31	Z31	X32	Y32	Z32	X33	Y33	Z33	

89	25.562857142857	808.682911596305	1014.174513415848	492.492282514074	965.117220531770	1427.489403915913	275.423645208391	1094.232778077807	1359.620490429391	417.360741688795	1044.354306132917	1438.345732612082	599.916732161941	973.851150084203	1493.549793458715	430.025004672641	1045.770469149434	933.380284376808	581.074640203794	1001.595228984387	961.297797078430	311.114561851317	1032.854039185068	720.122832612818	555.334529354354	930.588368646196	629.014258822070	624.273607503144	984.585293450153	561.082927567226	541.861404901614	960.644288569975	474.141246446704	550.170047226755	1067.080036111140	760.904148007566	350.116665766709	993.904778570405	633.772696163838	287.119732639131	1084.983090082361	566.620571614422	352.989103150594	1091.811884562951	496.040707503531	360.042224857535	1066.908056962780	422.760770503451	350.720368640910	983.198167699674	306.159853031214	295.707744540698	1035.853026141051	195.183833018468	365.344828487125	910.692691227792	395.220771628456	561.488403215359	817.029590393706	314.771432046647	629.598129413845	831.245655447977	210.805070964609	568.389081628261	661.428383414072	71.357563177895	545.062075772994	837.434431708065	100.912237515366	580.063356220278	743.025538610616	52.638328098301	618.687425362922	948.409885899669	36.990103704239	609.835289100268	909.184545634573	38.765188500762	399.839163992169	986.541975561885	36.455466160654	322.362418164447	1069.046758355026	97.087017747835	352.800891454857	1198.021077271948	44.925282993189	329.280825420936	854.465321696542	1094.181944627755	173.611313604908	854.898955984575	832.911865350062	192.161957109137	1245.836959919992	1167.028717019010	686.909612379193	1440.877724647467	1275.845004870006	568.267671020455	
90	25.586071428571	809.121453171476	1014.562622934392	488.030084410465	967.446389466579	1428.320779379490	273.112506086185	1095.106965261195	1360.077013426098	416.132319009028	1043.687084392182	1438.560060525824	598.387417363337	974.716177870334	1494.125794707483	427.914622943774	1045.335304570215	933.768148577954	578.533958883282	1003.476352893698	961.598853976948	308.250453865644	1032.463998603623	720.645331147101	553.675028107239	929.622514326419	629.997579952286	622.416230497097	984.271179718773	561.499358048746	540.876689903898	960.289908441860	474.138593956504	549.605025418035	1067.838233280517	760.522474475929	347.855372788579	994.173698934501	633.473639879583	285.138616901052	1084.631305128234	566.032138350939	351.535836267192	1091.174173474326	495.223544571725	358.778657473664	1065.524073029524	422.042063359384	349.772315133772	980.971724004197	305.979179283822	295.169027922922	1032.384339288858	194.822814041683	365.166462918698	909.347395932179	395.826955715911	560.916748564299	814.698716745117	316.492443128559	628.932167330689	828.478881597221	212.010072397571	568.381481433532	657.537005261466	74.047739797350	545.207255199424	833.774570915442	101.381416481714	580.205933436099	738.884832731702	54.123380286095	618.754467489339	943.897312874780	36.823675251996	609.837802900467	904.546034705573	38.915533667846	399.890849733098	981.881142270266	36.560794991343	322.443984207650	1064.515914252778	97.027055634236	352.863540193618	1193.433813417955	44.429276900621	329.228871769272	858.845015444905	1094.926128431655	168.516436958232	861.754802470965	833.686286921712	187.130817285072	1242.464373954258	1164.771365203834	687.275607341753	1445.583632883305	1264.132121386904	572.687049826072	
91	25.609285714286	809.467992481726	1014.810235989398	483.523001308657	969.710747969755	1429.119645732386	270.901914450333	1095.805303331712	1360.462645621805	415.056421233080	1042.771322918042	1438.678546769627	596.984077332043	975.428879980426	1494.641444894598	425.900015862492	1044.779830104285	934.140312878592	576.005457947576	1005.305696814833	961.804022252966	305.403417595613	1032.271799572022	721.167625669898	552.030900597668	928.996192639658	630.826008928996	620.532139529775	984.411709869616	561.827723874121	539.876597118171	960.518139511332	473.900041294342	549.099305430418	1068.646251396266	760.121129831184	345.627768904306	994.552204934807	633.117429590302	283.205433551759	1084.420723604132	565.427653117558	350.129182501183	1090.704955825987	494.369754398712	357.538805202573	1064.269414953630	421.273004185812	348.856856623200	978.814702744098	305.790086927601	294.643344084099	1028.937512139300	194.446031650974	365.020969629899	908.411857341103	396.257310942179	560.347699777017	812.681545723369	318.139300451863	628.223686062275	825.914081853954	213.129607690938	568.366000950220	653.706314318137	76.746233952502	545.344066257459	830.200838567876	101.850095369939	580.360129828863	734.797889090089	55.603541349846	618.824517832196	939.438687081934	36.700269735413	609.843451602368	899.900425849746	39.072069581634	399.950655467822	977.213074280186	36.665240821330	322.535861122057	1059.978050721225	96.970987833271	352.936939280181	1188.832591941826	43.957137288166	329.189424144881	863.625135524296	1095.444164862341	163.576210927821	869.177593196438	834.265709168331	182.420670611685	1238.230745806658	1161.825879999955	687.883220032358	1449.785956810325	1250.037594236930	578.243386533972	
92	25.632500000000	809.734265185568	1014.885348156422	478.965890669090	971.900470989314	1429.858825062427	268.789642930382	1096.326636895495	1360.756454432878	414.122673378409	1041.608860825497	1438.666039327219	595.699195532102	975.987880653865	1495.066881107070	423.985726512032	1044.136349415254	934.472553248984	573.477849265182	1007.091010864463	961.902328057373	302.564161168312	1032.328137213526	721.653627723524	550.374001927145	928.780818742873	631.447695120653	618.607344467066	985.076767137489	562.023103811720	538.831885903061	961.381813959394	473.383656996224	548.628726904915	1069.528154437170	759.692081230987	343.427317070664	995.085436021030	632.685022790254	281.314731096584	1084.406294853003	564.797238490021	348.770160229454	1090.459365085081	493.466222042356	356.326075603209	1063.191453564535	420.436657638995	347.977730066327	976.765062355013	305.585127561751	294.128490910028	1025.531577170244	194.042548910610	364.908070198002	907.938873074985	396.464668712911	559.762805182261	811.026219274435	319.680137447408	627.457833190779	823.577482344944	214.132580102028	568.328791373746	649.945382907459	79.436851788580	545.468832172033	826.731118876059	102.304520360487	580.528440502372	730.777235105897	57.065131888106	618.897874629236	935.052699176624	36.618704249489	609.855767986826	895.258010834165	39.230145209492	400.015476848737	972.549063696230	36.766625704698	322.635662529018	1055.440156707710	96.919780886366	353.021575181755	1184.226623856087	43.517438749064	329.165512602508	868.934540589920	1095.657908861722	158.848031757388	877.258487089161	834.562635821095	178.051033223819	1233.035006139533	1158.088389422747	688.655697700292	1453.074186473975	1233.295727418888	584.906721457956	
93	25.655714285714	809.935650799262	1014.752605753068	474.356809307639	974.001225922259	1430.506050843047	266.778514211458	1096.671085726381	1360.934685510193	413.322094175931	1040.205238831839	1438.480959138645	594.529361919906	976.393362405803	1495.365558342898	422.184278995680	1043.445657687002	934.731108383219	570.935742684617	1008.839609251766	961.884859234463	299.720771054785	1032.678624357174	722.056882399018	548.667150863664	929.037799943676	631.807502988905	616.621965798602	986.320296877360	562.036669827836	537.705971186321	962.909184834870	472.552244714848	548.158928550626	1070.503733342385	759.223254874052	341.243863371677	995.811155836528	632.154086984034	279.460499621460	1084.632542350088	564.126801831630	347.459787238165	1090.480420461646	492.496186623870	355.145380827823	1062.327151411029	419.514587640356	347.138853017513	974.853539508588	305.354460767100	293.625828649184	1022.184034010061	193.601665442180	364.826617123941	907.971347673210	396.403958805637	559.141829368621	809.774857842148	321.085458266263	626.622853032277	821.492731373684	214.991911902196	568.258212621602	646.265043407897	82.112809814750	545.582846490682	823.383327856644	102.730207986009	580.719556437061	726.833929782345	58.498546284142	618.977826687767	930.750425583136	36.577268059846	609.877652752084	890.625702808444	39.387441488927	400.083585662927	967.896181150399	36.864544871882	322.741572708057	1050.906756176857	96.873822207858	353.117385648652	1179.621810699330	43.113573301180	329.156599773451	874.893275860700	1095.494082046197	154.398012989303	886.085152773009	834.493506697429	174.036647809075	1226.771847730672	1153.476371003369	689.530442762310	1454.961593435999	1213.695554446524	592.631952020695	
